<svg xmlns="http://www.w3.org/2000/svg" width="100" height="100" viewBox="0 0 100 100">
  <metadata><?xpacket begin="﻿" id="W5M0MpCehiHzreSzNTczkc9d"?>
<x:xmpmeta xmlns:x="adobe:ns:meta/" x:xmptk="Adobe XMP Core 5.6-c138 79.159824, 2016/09/14-01:09:01        ">
   <rdf:RDF xmlns:rdf="http://www.w3.org/1999/02/22-rdf-syntax-ns#">
      <rdf:Description rdf:about=""/>
   </rdf:RDF>
</x:xmpmeta>
                                                                                                    
                                                                                                    
                                                                                                    
                                                                                                    
                                                                                                    
                                                                                                    
                                                                                                    
                                                                                                    
                                                                                                    
                                                                                                    
                                                                                                    
                                                                                                    
                                                                                                    
                                                                                                    
                                                                                                    
                                                                                                    
                                                                                                    
                                                                                                    
                                                                                                    
                                                                                                    
                           
<?xpacket end="w"?></metadata>
<defs>
    <style>
      .cls-1 {
        fill: none;
        stroke: #3e4454;
        stroke-width: 4px;
      }

      .cls-1, .cls-2 {
        fill-rule: evenodd;
      }

      .cls-2 {
        fill: #4f74b6;
      }
    </style>
  </defs>
  <path class="cls-1" d="M97.986,77.345L86.732,66.09,97.807,55.013,56.941,56.942,55.012,97.815,66.087,86.738,77.341,97.994Z"/>
  <path class="cls-2" d="M30,89H50v4H30V89ZM0,89H20v4H0V89ZM0,73H4V93H0V73ZM0,45H4V65H0V45ZM0,17H4V37H0V17ZM0-11H4V9H0V-11ZM0,0H20V4H0V0ZM28,0H48V4H28V0ZM56,0H76V4H56V0ZM84,0h20V4H84V0ZM96,0h4V20H96V0Zm0,28h4V48H96V28Z"/>
</svg>
