<?xml version="1.0" encoding="iso-8859-1"?>
<!-- Generator: Adobe Illustrator 16.0.0, SVG Export Plug-In . SVG Version: 6.00 Build 0)  -->
<!DOCTYPE svg PUBLIC "-//W3C//DTD SVG 1.1//EN" "http://www.w3.org/Graphics/SVG/1.1/DTD/svg11.dtd">
<svg version="1.1" id="Capa_1" xmlns="http://www.w3.org/2000/svg" xmlns:xlink="http://www.w3.org/1999/xlink" x="0px" y="0px"
	 width="775.51px" height="775.51px" viewBox="0 0 775.51 775.51" style="enable-background:new 0 0 775.51 775.51;"
	 xml:space="preserve">
<g>
	<g id="apple">
		<g>
			<path d="M681.863,550.2c-56.177-18.165-93.932-69.643-93.932-128.085c0-51.975,29.384-98.495,76.71-121.36
				c4.288-2.076,7.53-5.85,8.92-10.395c1.406-4.563,0.841-9.486-1.526-13.62c-1.938-3.362-48.647-82.302-149.39-82.302
				c-42.129,0-87.688,13.877-135.546,41.254c-19.915-11.905-68.477-37.274-120.503-37.274c-27.651,0-52.489,7.17-73.828,21.304
				c-15.524,8.646-167.624,100.879-88.168,347.649c2.333,5.523,57.772,135.409,123.59,184.159c5.197,4.7,26.776,22.299,58.63,22.299
				c19.555,0,39.058-6.518,57.979-19.366c6.004-2.453,31.871-12.367,59.488-12.367c17.839,0,32.729,4.134,44.479,12.487
				c1.252,0.858,30.979,20.928,65.681,20.928c22.574,0,42.78-8.543,58.493-24.718c8.525-7.394,81.771-73.006,119.868-176.664
				c0.841-2.281,1.063-6.363,0.892-8.782C693.185,558.331,688.502,552.361,681.863,550.2z M550.022,725.199
				c-0.446,0.395-0.909,0.807-1.321,1.253c-9.417,9.914-20.635,14.718-34.255,14.718c-23.86,0-46.057-14.752-46.074-14.752
				c-17.428-12.385-38.99-18.663-64.103-18.663c-38.903,0-73.365,15.267-74.805,15.918c-0.978,0.429-1.921,0.978-2.796,1.578
				c-13.534,9.452-26.931,14.237-39.847,14.237c-21.408,0-35.525-13.345-35.559-13.362c-0.635-0.635-1.304-1.201-2.024-1.732
				C190.762,681.75,136.78,555.397,136.711,555.397c-73.382-228.089,66.693-302.672,72.628-305.691
				c0.652-0.326,1.286-0.703,1.887-1.115c15.712-10.549,34.341-15.901,55.337-15.901c55.646,0,109.902,36.812,110.451,37.188
				c5.541,3.808,12.831,4.031,18.594,0.549c45.782-27.686,88.512-41.717,126.986-41.717c57.858,0,93.28,31.768,109.388,50.963
				c-48.818,30.979-78.408,83.915-78.408,142.407c0,67.533,40.07,127.622,101.343,154.519
				C617.127,667.375,550.726,724.599,550.022,725.199z M382.485,206.531c0.377,0,0.772-0.017,1.167-0.051
				c1.75-0.12,174.003-13.86,164.672-190.231c-0.257-4.7-2.419-9.108-6.004-12.145c-3.602-3.054-8.302-4.529-12.95-3.997
				c-1.527,0.172-153.592,18.492-164.004,188.225c-0.309,4.923,1.527,9.743,5.043,13.225
				C373.617,204.747,377.974,206.531,382.485,206.531z M514.172,38.273c-4.271,93.812-75.887,122.218-112.252,130.606
				C416.174,77.674,481.34,47.69,514.172,38.273z"/>
		</g>
	</g>
</g>
<g>
</g>
<g>
</g>
<g>
</g>
<g>
</g>
<g>
</g>
<g>
</g>
<g>
</g>
<g>
</g>
<g>
</g>
<g>
</g>
<g>
</g>
<g>
</g>
<g>
</g>
<g>
</g>
<g>
</g>
</svg>
