<svg xmlns="http://www.w3.org/2000/svg" viewBox="0 0 512 512"><defs><style>.a{fill:#d80027;}</style></defs><title>magnifier</title><path class="a" d="M497.93,430.07,380.47,312.6a226.1,226.1,0,0,1-67.88,67.87L430.06,497.94a48,48,0,0,0,67.87-67.87Z" transform="translate(0)"/><path class="a" d="M384,192C384,86,298,0,192,0S0,86,0,192,86,384,192,384,384,298,384,192ZM192,336c-79.41,0-144-64.59-144-144S112.59,48,192,48s144,64.59,144,144S271.41,336,192,336Z" transform="translate(0)"/><path class="a" d="M80,192h32a80.09,80.09,0,0,1,80-80V80A112.14,112.14,0,0,0,80,192Z" transform="translate(0)"/></svg>