<svg xmlns="http://www.w3.org/2000/svg" viewBox="0 0 512 512"><defs><style>.a{fill:#d80027;}</style></defs><title>tree-structure</title><path class="a" d="M472.51,386.62V324.09c0-37.77-25-94-94-94H324.09c-38.45,0-42-18.87-42.21-28.6V125.39a65.36,65.36,0,1,0-51.74,0v76.15c0,7-2,28.6-42.21,28.6H133.45c-68.93,0-94,56.19-94,94v62.53a65.36,65.36,0,1,0,51.74,0V324.09c0-7,2-42.21,42.21-42.21h54.47c16.53,0,30.47-2.5,42.21-6.74V386.63a65.36,65.36,0,1,0,51.74,0V275.13c11.74,4.24,25.68,6.74,42.21,6.74h54.47c38.45,0,42,32.48,42.21,42.21v62.53a65.36,65.36,0,1,0,51.74,0Zm-369.44,60a37.71,37.71,0,1,1-37.71-37.71A37.71,37.71,0,0,1,103.07,446.64ZM218.29,65.36A37.71,37.71,0,1,1,256,103.07,37.72,37.72,0,0,1,218.29,65.36Zm75.42,381.28A37.71,37.71,0,1,1,256,408.93,37.71,37.71,0,0,1,293.71,446.64Zm152.93,37.71a37.71,37.71,0,1,1,37.71-37.71A37.71,37.71,0,0,1,446.64,484.35Z" transform="translate(0 0)"/></svg>